# Blender 3.4.0
# www.blender.org
mtllib BrazoI.mtl
o BrazoI
v 10.055574 20.144367 -1.930892
v 8.795042 22.327902 0.204555
v 12.533114 25.089312 -0.665598
v 12.884462 24.528351 1.538597
v 10.350239 19.633877 1.312527
v 13.972212 22.574699 2.052524
v 14.767422 21.226715 0.393107
v 14.424105 21.777800 -1.793579
v 13.341329 23.729080 -2.341308
v 17.798643 26.567566 -1.264804
v 11.948013 23.751789 -0.934629
v 18.858887 27.123779 0.458743
v 12.021534 23.565895 0.712187
v 18.259300 25.539047 1.083328
v 12.718740 21.670025 0.658344
v 18.418026 24.643906 0.181767
v 18.348949 24.982910 -1.041610
v 12.645228 21.855904 -0.988420
v 25.231899 23.347889 0.463374
v 25.430099 24.114799 -1.085256
v 25.704964 25.132437 0.041376
v 27.629602 16.140961 -0.072410
v 23.662830 17.273325 -0.456462
v 25.701515 17.670174 -2.650916
v 26.893816 17.936226 -2.616986
v 29.622374 17.910725 -0.086877
v 26.853844 17.902815 2.624898
v 27.023642 19.554810 -0.018578
v 25.463737 17.436260 2.589776
v 22.616390 20.675072 0.000001
v 23.737473 19.301640 -2.170410
v 24.900368 20.630177 -2.263544
v 26.106773 21.035955 -0.601889
v 25.800640 22.643616 0.222010
v 23.854679 22.236401 1.067745
v 24.897011 20.624336 2.265737
v 23.511055 19.047049 1.980763
v 23.738930 22.443151 -0.877362
v 38.179016 21.911663 0.619931
v 37.793907 25.085041 0.322827
v 37.797218 22.968086 -2.367017
v 34.849106 28.840401 0.397652
v 35.240211 26.425301 3.618618
v 35.982124 23.019522 4.149285
v 36.720394 18.813437 -0.299126
v 33.512478 19.115904 2.690452
v 32.462067 17.447588 -0.117585
v 33.388065 19.138273 -3.272576
v 35.929077 23.178658 -4.821859
v 35.208046 27.132204 -3.778480
v 32.859947 24.886015 4.901817
v 33.051193 22.454929 -4.927452
v 31.981346 25.215740 -5.341325
v 30.959623 24.139818 3.904840
v 30.958704 20.319834 0.626639
v 32.490974 19.969505 0.444654
v 30.385212 21.869413 -2.334810
v 30.176554 29.519459 -2.780313
v 24.943232 28.304768 -1.283112
v 25.929884 28.434906 1.515658
v 29.984024 30.043491 0.936719
v 29.343693 28.134533 3.883567
v 25.487782 24.605469 2.440217
v 27.450693 24.640657 4.076096
v 27.213036 22.293846 1.483903
v 26.245255 21.344488 -1.326644
v 27.595684 21.948092 -1.281307
v 23.643833 25.220495 -2.375817
v 27.435774 24.645887 -4.698446
v 29.343699 28.134531 -4.509788
v 23.155548 25.126303 1.357967
v 23.455307 22.117805 -0.313103
v 30.126030 21.845913 1.034721
vn -0.2499 0.3570 -0.9000
vn -0.7657 -0.1829 -0.6166
vn -0.9405 0.1170 -0.3190
vn -0.9396 0.2381 -0.2458
vn -0.4206 0.7655 -0.4869
vn -0.2728 0.4231 -0.8641
vn -0.9083 0.2864 0.3049
vn -0.3034 0.7830 0.5429
vn -0.3511 0.9358 0.0307
vn -0.3178 0.4669 0.8252
vn -0.8648 -0.0197 0.5018
vn -0.6424 -0.3881 0.6609
vn -0.5262 -0.4554 0.7182
vn 0.0384 0.0020 0.9993
vn -0.2645 0.4163 0.8699
vn -0.2236 -0.8547 0.4685
vn 0.5746 -0.6850 0.4480
vn 0.4204 -0.3503 0.8370
vn 0.4845 -0.8715 0.0756
vn -0.3104 -0.9437 0.1143
vn -0.3509 -0.8697 -0.3472
vn -0.3016 -0.8263 -0.4758
vn 0.4683 -0.7201 -0.5120
vn 0.4971 -0.8677 -0.0037
vn -0.4965 -0.4033 -0.7687
vn 0.0993 0.1117 -0.9888
vn 0.3978 -0.3147 -0.8618
vn -0.4976 -0.5652 -0.6580
vn -0.3763 -0.7519 0.5413
vn -0.9665 0.2239 0.1257
vn 0.8715 0.4899 0.0226
vn 0.8754 0.4831 -0.0166
vn 0.8683 0.4961 -0.0008
vn 0.8583 0.5131 -0.0055
vn -0.2396 0.9526 0.1872
vn -0.3474 0.8844 -0.3116
vn -0.4221 0.8629 -0.2779
vn -0.4452 0.8848 -0.1377
vn -0.4154 0.8250 0.3831
vn -0.2988 0.8812 0.3663
vn -0.1397 0.2014 0.9695
vn -0.1516 0.6600 0.7358
vn -0.2765 0.5967 0.7533
vn -0.1471 0.1708 0.9743
vn 0.1141 -0.2844 0.9519
vn 0.0851 -0.2417 0.9666
vn 0.3202 -0.8083 0.4940
vn 0.1863 -0.4670 0.8644
vn 0.2725 -0.4736 0.8375
vn 0.2213 -0.8359 -0.5024
vn 0.3024 -0.9532 0.0005
vn 0.4667 -0.8844 -0.0095
vn 0.4994 -0.8555 0.1367
vn 0.4449 -0.8208 -0.3582
vn 0.3030 -0.8715 -0.3857
vn -0.1013 0.1241 -0.9871
vn 0.0928 -0.3505 -0.9319
vn 0.1980 -0.3561 -0.9132
vn 0.1011 -0.2284 -0.9683
vn -0.1641 0.2165 -0.9624
vn -0.1899 0.2611 -0.9465
vn 0.9664 -0.2570 -0.0036
vn 0.2696 0.8400 -0.4708
vn 0.1829 0.4977 -0.8479
vn 0.1320 0.5186 -0.8448
vn 0.1114 0.7694 -0.6290
vn 0.2303 0.9597 -0.1610
vn 0.2576 0.9502 -0.1755
vn 0.0273 -0.0442 0.9986
vn 0.1808 0.4348 0.8822
vn 0.1379 0.4559 0.8793
vn 0.2178 0.5425 0.8113
vn 0.0708 0.0779 0.9944
vn 0.0989 0.0601 0.9933
vn -0.1498 -0.5080 0.8482
vn -0.1625 -0.8666 0.4717
vn -0.1867 -0.8637 0.4681
vn -0.1849 -0.9828 0.0037
vn -0.1231 -0.8601 -0.4951
vn -0.1019 -0.8656 -0.4902
vn -0.0667 -0.7428 -0.6662
vn -0.1654 -0.9636 -0.2101
vn -0.1715 -0.9619 -0.2128
vn -0.0385 -0.3927 -0.9189
vn -0.0343 0.1226 -0.9919
vn 0.0515 0.1016 -0.9935
vn -0.0273 -0.9694 -0.2438
vn -0.3364 -0.8769 -0.3432
vn -0.1579 -0.7581 -0.6327
vn 0.2251 -0.8809 -0.4163
vn 0.0419 -0.6875 -0.7250
vn 0.3523 -0.4844 -0.8008
vn 0.2853 -0.8090 -0.5139
vn 0.4448 -0.2259 -0.8667
vn 0.7711 0.1559 -0.6174
vn 0.5499 -0.0982 0.8294
vn 0.5631 -0.6855 0.4616
vn 0.8415 -0.2707 0.4676
vn 0.4551 -0.7797 0.4300
vn 0.4202 -0.4637 0.7800
vn 0.0937 -0.6735 0.7332
vn -0.0346 -0.9832 0.1793
vn -0.2399 -0.8819 0.4057
vn -0.4094 -0.9068 0.1006
vn 0.4644 -0.0356 0.8849
vn 0.7269 0.3672 0.5803
vn 0.6804 0.6495 0.3396
vn -0.4587 -0.2338 -0.8573
vn -0.2965 -0.4936 -0.8176
vn -0.5507 -0.6992 -0.4559
vn -0.6009 -0.7852 0.1493
vn -0.4167 -0.7054 0.5734
vn -0.6283 -0.4951 0.6001
vn -0.9088 0.1408 -0.3928
vn -0.6336 0.3381 -0.6959
vn -0.6114 0.1056 -0.7842
vn -0.0836 0.2628 -0.9612
vn -0.5422 0.0151 -0.8401
vn -0.6488 0.2707 -0.7112
vn 0.8086 0.1726 -0.5625
vn 0.4418 0.3813 -0.8120
vn 0.2291 0.4885 -0.8420
vn -0.0325 0.3120 0.9495
vn 0.2454 0.2761 0.9293
vn 0.7224 0.3960 0.5669
vn -0.6854 0.2400 0.6874
vn -0.5976 -0.0324 0.8011
vn -0.1312 0.2099 0.9689
vn -0.6258 0.0806 0.7758
vn -0.6232 0.3222 0.7126
vn -0.9049 0.1834 0.3841
vn -0.3019 0.9412 -0.1517
vn -0.0506 0.7919 0.6086
vn 0.3397 0.8411 0.4210
vn -0.7509 -0.2153 -0.6244
vn -0.8424 -0.4818 -0.2415
vn -0.9535 -0.2588 -0.1542
vn -0.4023 -0.0081 -0.9155
vn 0.1607 0.1921 -0.9681
vn 0.1259 0.0594 -0.9903
vn 0.4774 -0.1707 -0.8620
vn 0.8901 -0.1524 -0.4296
vn 0.8432 -0.0614 -0.5340
vn 0.8700 0.2849 0.4024
vn 0.8533 0.1578 0.4970
vn 0.5978 0.2157 0.7720
vn 0.0370 0.0157 0.9992
vn 0.0802 0.1438 0.9864
vn -0.4805 -0.0374 0.8762
vn -0.8663 -0.2078 0.4543
vn -0.9533 -0.0949 0.2869
vn -0.8766 -0.4711 0.0984
vn 0.0868 0.8383 -0.5382
vn 0.4937 0.8110 -0.3140
vn 0.8097 0.2837 -0.5138
vn -0.9098 0.3524 0.2195
vn -0.7035 0.6294 0.3300
vn -0.6923 0.7216 -0.0098
vn 0.5328 0.0219 -0.8460
vn 0.6101 0.5111 -0.6054
vn 0.6920 0.1135 -0.7129
vn 0.2221 0.1707 -0.9600
vn 0.2484 0.2392 -0.9387
vn -0.2393 -0.2110 -0.9478
vn 0.6517 0.4964 -0.5735
vn 0.6248 0.4317 -0.6506
vn 0.8846 0.4159 -0.2109
vn 0.9017 0.3981 0.1686
vn 0.6343 0.4183 0.6501
vn 0.6736 0.4770 0.5645
vn -0.2882 -0.2493 0.9245
vn 0.2057 0.1986 0.9583
vn 0.1709 0.1201 0.9779
vn 0.7768 0.3212 0.5417
vn 0.8389 0.2191 0.4982
vn 0.4677 0.2069 0.8593
vn 0.9727 -0.2117 0.0951
vn 0.9258 0.1829 -0.3307
vn 0.9267 0.3563 -0.1197
vn 0.8726 0.4451 0.2011
vn 0.5929 0.7481 0.2979
vn 0.5717 0.5449 0.6133
vn 0.8877 0.3299 0.3212
vn 0.6167 0.4074 0.6736
vn 0.6487 0.0028 0.7611
vn 0.6501 0.0237 0.7595
vn 0.9352 0.0531 0.3502
vn 0.9074 0.2973 0.2970
vn 0.5405 -0.8036 0.2491
vn 0.0693 -0.7777 0.6248
vn -0.1499 -0.9829 0.1074
vn 0.4815 -0.8763 0.0183
vn -0.1375 -0.9904 -0.0107
vn -0.0467 -0.8232 -0.5658
vn 0.8752 0.1017 -0.4729
vn 0.5495 0.0724 -0.8324
vn 0.5540 0.4868 -0.6753
vn 0.6848 0.6348 -0.3579
vn 0.9214 0.3852 -0.0506
vn 0.9527 0.2043 -0.2251
vn 0.8941 0.4307 -0.1225
vn 0.6532 0.6307 -0.4191
vn 0.6034 0.7933 -0.0809
vn 0.0755 -0.0320 0.9966
vn 0.5427 -0.0269 0.8395
vn 0.5630 0.4054 0.7202
vn 0.4294 -0.1994 -0.8808
vn -0.1055 -0.5086 -0.8545
vn -0.1034 0.0076 -0.9946
vn 0.3819 -0.0085 -0.9242
vn -0.0939 0.1984 -0.9756
vn 0.3804 0.4607 -0.8019
vn 0.3945 0.8433 0.3649
vn 0.1846 0.9069 0.3788
vn 0.0100 0.6696 0.7426
vn 0.0638 0.6231 0.7795
vn 0.3298 0.5996 0.7292
vn 0.4116 0.8295 0.3775
vn 0.3424 0.6812 0.6470
vn 0.0289 0.6758 0.7365
vn 0.0231 0.1326 0.9909
vn 0.0460 -0.2905 0.9558
vn -0.0651 -0.5145 0.8550
vn -0.1365 -0.8464 0.5148
vn -0.4353 -0.6890 0.5795
vn -0.6365 -0.4021 0.6582
vn -0.1390 -0.2136 0.9670
vn -0.5535 -0.8320 0.0380
vn -0.6320 -0.6972 -0.3384
vn -0.7909 -0.6118 -0.0121
vn -0.7422 -0.5608 -0.3669
vn -0.8783 -0.4710 0.0818
vn -0.4517 -0.8894 0.0694
vn -0.7191 -0.5214 -0.4594
vn -0.4492 -0.4539 -0.7696
vn -0.1971 -0.4667 -0.8622
vn 0.0089 0.0984 -0.9951
vn 0.0284 0.6364 -0.7708
vn 0.3318 0.6611 -0.6729
vn -0.0978 0.6397 -0.7624
vn 0.2002 0.8525 -0.4829
vn 0.4145 0.7353 -0.5361
vn 0.1920 0.9105 -0.3663
vn 0.2551 0.9632 0.0844
vn 0.4663 0.8843 0.0245
vn 0.5114 0.8542 -0.0942
vn 0.4428 0.7555 -0.4828
vn 0.2156 0.8493 -0.4819
vn -0.5181 0.8231 0.2325
vn -0.1936 0.9807 -0.0289
vn -0.4546 0.8727 -0.1781
vn -0.5000 0.6045 0.6201
vn -0.5534 0.1927 0.8103
vn -0.2980 0.2838 0.9114
vn -0.6810 -0.5149 0.5207
vn -0.2357 -0.8099 0.5372
vn -0.0860 -0.7702 0.6320
vn -0.3106 0.0273 0.9502
vn -0.2632 0.5423 0.7979
vn -0.5477 0.5048 0.6673
vn -0.1772 -0.7507 0.6364
vn -0.3453 -0.3383 0.8754
vn -0.4219 -0.1995 0.8844
vn 0.0395 -0.7890 0.6132
vn -0.0375 -0.9993 0.0074
vn 0.0377 -0.9984 -0.0413
vn -0.0820 -0.6852 -0.7237
vn 0.0762 -0.7063 -0.7038
vn -0.2387 -0.2574 -0.9364
vn -0.3513 -0.3369 -0.8736
vn -0.2864 -0.4633 -0.8387
vn -0.1153 -0.7989 -0.5903
vn -0.5347 0.4968 -0.6836
vn -0.2474 0.5367 -0.8067
vn -0.2935 0.0146 -0.9558
vn -0.3096 0.3802 -0.8716
vn -0.5385 0.2839 -0.7934
vn -0.5443 0.6527 -0.5270
vn -0.9809 0.0966 0.1688
vn -0.7919 -0.1549 -0.5906
vn -0.7734 -0.5225 -0.3588
vn -0.9410 0.2952 0.1653
vn -0.7801 0.5966 -0.1885
vn -0.8890 0.3085 -0.3385
vn -0.1326 0.4149 0.9002
vn -0.1679 -0.1768 0.9698
vn -0.0816 -0.1132 0.9902
vn -0.1499 -0.8523 0.5011
vn 0.0187 -0.4445 0.8956
vn -0.1879 -0.4942 0.8488
vn -0.1930 -0.8743 -0.4453
vn -0.5819 -0.8035 -0.1257
vn -0.2679 -0.9566 0.1146
vn -0.5666 -0.5906 -0.5746
vn -0.3636 -0.7118 -0.6009
vn -0.1153 -0.4123 -0.9037
vn -0.0757 -0.1115 -0.9909
vn -0.1516 -0.1773 -0.9724
vn -0.1187 0.4139 -0.9026
vn -0.7733 0.6340 -0.0037
vn -0.8624 0.4110 0.2957
vn -0.6217 0.6442 0.4454
vn -0.7939 -0.3294 0.5111
vn -0.6699 -0.6848 0.2868
vn 0.0455 -0.8539 0.5185
vn -0.0320 -0.9034 0.4276
vn -0.4997 -0.5283 0.6865
vn -0.8087 -0.3475 0.4746
vn 0.2122 -0.9767 0.0310
vn 0.1386 -0.7888 0.5988
vn -0.6173 -0.6420 0.4547
vn -0.1695 -0.9066 -0.3864
vn -0.7819 -0.5667 -0.2598
vn -0.8193 -0.2143 -0.5319
vn 0.8143 -0.3795 0.4392
vn 0.4846 -0.2971 0.8227
vn 0.2567 -0.5978 0.7595
vn 0.2551 -0.6466 0.7189
vn 0.6242 -0.6277 0.4652
vn 0.8220 -0.3315 0.4630
vn 0.4188 -0.2196 0.8811
vn -0.1873 -0.2460 0.9510
vn -0.4987 -0.4636 0.7324
vn -0.0431 -0.1642 0.9855
vn -0.6212 -0.2141 0.7538
vn -0.5451 -0.3642 0.7551
vn -0.7528 -0.6442 0.1350
vn -0.5980 -0.3029 0.7421
vn -0.6389 -0.0541 0.7674
vn -0.8340 -0.5123 -0.2048
vn -0.5768 -0.7175 -0.3906
vn -0.5295 -0.6478 -0.5477
vn -0.5125 -0.6353 -0.5777
vn -0.6278 -0.7713 -0.1045
vn -0.7505 -0.6350 -0.1831
vn -0.0612 -0.3310 -0.9417
vn 0.5245 -0.1860 -0.8309
vn 0.3014 -0.6562 -0.6918
vn 0.4691 -0.3110 -0.8266
vn 0.8234 -0.2671 -0.5006
vn 0.6574 -0.5941 -0.4635
vn 0.5865 -0.6304 -0.5085
vn 0.2306 -0.6293 -0.7421
vn 0.4650 -0.3099 -0.8293
vn 0.9007 -0.1712 -0.3992
vn 0.9854 -0.1538 0.0734
vn 0.7254 -0.6301 -0.2771
vn -0.3845 -0.8514 0.3568
vn -0.4751 -0.7862 0.3952
vn -0.3133 -0.4980 0.8086
vn -0.5974 -0.6384 -0.4853
vn -0.5478 -0.8366 -0.0033
vn -0.5456 -0.8380 0.0076
vn -0.2044 0.6699 0.7137
vn -0.2937 0.9154 0.2752
vn -0.4194 0.8494 0.3203
vn -0.0968 -0.4158 0.9043
vn 0.1183 -0.7679 0.6296
vn 0.1154 -0.7882 0.6046
vn -0.2180 -0.8673 0.4475
vn -0.0980 -0.5455 0.8324
vn -0.3595 -0.4796 0.8005
vn -0.2333 -0.9614 -0.1461
vn 0.0569 -0.9767 0.2067
vn 0.0471 -0.9536 0.2972
vn -0.2640 -0.5121 -0.8174
vn -0.0444 -0.5718 -0.8192
vn -0.2369 -0.8396 -0.4889
vn -0.4395 0.8482 -0.2956
vn -0.2837 0.9127 -0.2941
vn -0.2905 0.6340 -0.7167
vn -0.3227 0.8783 -0.3528
vn -0.4676 0.8401 -0.2747
vn -0.1647 0.9856 0.0394
vt 0.693796 0.000000
vt 0.646977 0.892678
vt 0.949982 0.000000
vt 0.054421 0.000000
vt 0.086943 0.429427
vt 0.956177 0.973356
vt 0.000000 0.973356
vt 0.037798 0.641039
vt 0.131878 0.969334
vt 0.142930 0.174070
vt 0.361256 0.000000
vt 0.768259 0.177835
vt 0.291951 0.990442
vt 0.625904 0.033742
vt 0.458235 0.994087
vt 0.966407 0.374653
vt 0.624047 0.989815
vt 0.843591 0.839409
vt 0.789177 0.982872
vt 0.371806 0.965644
vt 0.000000 1.000000
vt 0.869996 1.000000
vt 0.144139 0.781123
vt 0.000000 0.000000
vt 0.903806 0.000000
vt 0.129330 1.000000
vt 0.103565 0.283507
vt 0.119366 0.000000
vt 0.294898 1.000000
vt 0.634748 0.036112
vt 0.403811 0.000000
vt 0.453242 1.000000
vt 0.966035 0.373265
vt 0.623957 1.000000
vt 0.843789 0.839211
vt 0.619361 0.000000
vt 0.813412 0.289819
vt 0.531917 0.958048
vt 0.086748 0.429729
vt 0.145417 0.862746
vt 0.691630 0.931180
vt 0.036873 0.487327
vt 1.000000 0.483926
vt 0.217855 0.513251
vt 0.315986 0.592315
vt 0.497063 0.761082
vt 0.525226 0.817395
vt 0.685104 0.611982
vt 0.503092 0.458418
vt 0.802377 0.520123
vt 0.049315 0.276977
vt 0.969854 0.271729
vt 0.166700 0.392561
vt 0.292902 0.340254
vt 0.454625 0.329173
vt 0.517853 0.214763
vt 0.764411 0.171916
vt 0.707693 0.340277
vt 0.858731 0.401500
vt 0.583300 0.000000
vt 0.202084 0.140303
vt 0.966492 0.099644
vt 0.833300 1.000000
vt 0.321550 0.929201
vt 0.583300 1.000000
vt 0.066326 0.833300
vt 0.964141 0.833300
vt 0.742485 0.833300
vt 0.034052 0.590380
vt 1.000000 0.590380
vt 0.166700 0.623073
vt 0.303066 0.666700
vt 0.501128 0.833300
vt 0.372543 0.564957
vt 0.500000 0.666700
vt 0.521831 0.587350
vt 0.521831 0.710362
vt 0.609390 0.718818
vt 0.632806 0.552149
vt 0.704351 0.666700
vt 0.863922 0.618397
vt 0.280944 0.487157
vt 0.583300 0.666700
vt 0.649756 0.500000
vt 0.726703 0.468727
vt 0.333300 0.440125
vt 0.472094 0.458300
vt 0.478521 0.500000
vt 0.500000 0.666700
vt 0.583300 0.427852
vt 0.916700 0.421042
vt 0.000000 0.219248
vt 0.963313 0.244853
vt 0.083300 0.277386
vt 0.040248 0.416561
vt 1.000000 0.412373
vt 0.166700 0.394920
vt 0.290621 0.250000
vt 0.288739 0.333575
vt 0.416700 0.311155
vt 0.556064 0.250000
vt 0.539854 0.335703
vt 0.765905 0.172497
vt 0.711420 0.333576
vt 0.833300 0.394920
vt 0.583300 0.000000
vt 0.916700 0.000000
vt 0.253649 0.130666
vt 0.500812 0.166700
vt 0.445267 0.414808
s 0
usemtl Material__189
f 9/19/1 1/1/2 2/3/3
f 2/3/4 3/6/5 9/19/6
f 2/4/7 4/9/8 3/7/9
f 4/9/10 2/4/11 5/11/12
f 5/11/13 6/13/14 4/9/15
f 5/11/16 7/15/17 6/13/18
f 7/15/19 5/11/20 1/1/21
f 1/1/22 8/17/23 7/15/24
f 1/1/25 9/19/26 8/17/27
f 1/2/28 5/12/29 2/5/30
f 8/18/31 9/20/31 3/8/31
f 3/8/32 4/10/32 6/14/32
f 8/18/33 3/8/33 6/14/33
f 7/16/34 8/18/34 6/14/34
usemtl Material__177
f 12/26/35 10/21/36 11/24/37
f 11/24/38 13/28/39 12/26/40
f 14/29/41 12/26/42 13/28/43
f 13/28/44 15/31/45 14/29/46
f 16/32/47 14/29/48 15/31/49
f 17/34/50 16/32/51 15/31/52
f 15/31/53 18/36/54 17/34/55
f 10/22/56 17/34/57 18/36/58
f 18/36/59 11/25/60 10/22/61
f 20/38/62 21/39/62 19/37/62
f 21/39/63 20/38/64 10/23/65
f 10/23/66 12/27/67 21/39/68
f 19/37/69 21/39/70 12/27/71
f 12/27/72 14/30/73 19/37/74
f 14/30/75 16/33/76 19/37/77
f 16/33/78 17/35/79 19/37/80
f 20/38/81 19/37/82 17/35/83
f 17/35/84 10/23/85 20/38/86
f 22/40/87 23/42/88 24/44/89
f 22/40/90 24/44/91 25/45/92
f 22/40/93 25/45/94 26/47/95
f 27/48/96 22/41/97 26/46/98
f 22/41/99 27/48/100 29/50/101
f 22/41/102 29/50/103 23/43/104
f 27/48/105 26/46/106 28/49/107
f 31/53/108 24/44/109 23/42/110
f 23/43/111 29/50/112 37/59/113
f 30/51/114 38/61/115 31/53/116
f 32/54/117 31/53/118 38/61/119
f 33/55/120 32/54/121 38/61/122
f 35/57/123 36/58/124 34/56/125
f 35/57/126 37/59/127 36/58/128
f 37/59/129 35/57/130 30/52/131
f 38/60/132 35/57/133 34/56/134
f 31/53/135 23/42/136 30/51/137
f 31/53/138 32/54/139 24/44/140
f 32/54/141 33/55/142 28/49/143
f 28/49/144 33/55/145 36/58/146
f 29/50/147 36/58/148 37/59/149
f 37/59/150 30/52/151 23/43/152
f 38/61/153 34/56/154 33/55/155
f 30/52/156 35/57/157 38/62/158
f 25/45/159 28/49/160 26/47/161
f 32/54/162 25/45/163 24/44/164
f 25/45/165 32/54/166 28/49/167
f 28/49/168 36/58/169 27/48/170
f 29/50/171 27/48/172 36/58/173
f 33/55/174 34/56/175 36/58/176
f 39/63/177 41/68/178 40/67/179
f 40/66/180 42/69/181 43/71/182
f 40/66/183 43/71/184 44/72/185
f 44/72/186 39/64/187 40/66/188
f 45/73/189 46/74/190 47/75/191
f 45/73/192 47/75/193 48/79/194
f 41/68/195 49/80/196 50/81/197
f 50/81/198 40/67/199 41/68/200
f 40/67/201 50/81/202 42/70/203
f 51/82/204 44/72/205 43/71/206
f 49/80/207 52/84/208 53/85/209
f 49/80/210 53/85/211 50/81/212
f 42/69/213 61/95/214 62/97/215
f 62/97/216 43/71/217 42/69/218
f 43/71/219 62/97/220 51/82/221
f 51/82/222 54/86/223 55/87/224
f 55/87/225 56/88/226 51/82/227
f 55/87/228 57/90/229 52/84/230
f 52/84/231 56/88/232 55/87/233
f 57/90/234 53/85/235 52/84/236
f 53/85/237 70/105/238 50/81/239
f 70/105/240 58/91/241 50/81/242
f 58/91/243 61/96/244 42/70/245
f 42/70/246 50/81/247 58/91/248
f 60/94/249 61/95/250 59/92/251
f 60/94/252 71/108/253 62/97/254
f 71/108/255 63/98/256 64/99/257
f 64/99/258 62/97/259 71/108/260
f 65/100/261 64/99/262 63/98/263
f 65/100/264 66/101/265 67/102/266
f 67/102/267 66/101/268 68/103/269
f 68/103/270 69/104/271 67/102/272
f 68/103/273 70/105/274 69/104/275
f 70/105/276 68/103/277 59/93/278
f 71/106/279 68/103/280 72/109/281
f 71/107/282 59/93/283 68/103/284
f 62/97/285 64/99/286 51/82/287
f 54/86/288 51/82/289 64/99/290
f 57/90/291 73/110/292 67/102/293
f 57/90/294 67/102/295 53/85/296
f 53/85/297 69/104/298 70/105/299
f 59/92/300 71/108/301 60/94/302
f 71/108/303 72/109/304 65/100/305
f 65/100/306 63/98/307 71/108/308
f 66/101/309 65/100/310 72/109/311
f 66/101/312 72/109/313 68/103/314
f 39/64/315 44/72/316 46/74/317
f 46/74/318 45/73/319 39/64/320
f 44/72/321 51/82/322 46/74/323
f 51/82/324 56/88/325 46/74/326
f 47/76/327 46/74/328 56/88/329
f 56/89/330 52/83/331 48/78/332
f 48/78/333 47/77/334 56/89/335
f 52/84/336 49/80/337 48/79/338
f 49/80/339 41/68/340 45/73/341
f 45/73/342 48/79/343 49/80/344
f 41/68/345 39/65/346 45/73/347
f 73/110/348 55/87/349 54/86/350
f 57/90/351 55/87/352 73/110/353
f 62/97/354 61/95/355 60/94/356
f 64/99/357 65/100/358 73/110/359
f 73/110/360 54/86/361 64/99/362
f 67/102/363 73/110/364 65/100/365
f 69/104/366 53/85/367 67/102/368
f 59/93/369 58/91/370 70/105/371
f 58/91/372 59/93/373 61/96/374
