# Blender 3.4.0
# www.blender.org
mtllib BrazoD.mtl
o BrazoD
v -38.320595 23.197105 -1.063912
v -36.763321 23.181925 3.741614
v -34.777107 28.840405 -0.848894
v -35.791008 24.632614 -4.856058
v -36.648407 18.813433 -0.152100
v -33.440491 19.115902 -3.141683
v -32.390083 17.447584 -0.333652
v -33.316090 19.138271 2.821343
v -35.136040 27.132210 3.327246
v -32.454044 24.972383 -5.229462
v -32.979202 22.454926 4.476218
v -31.909370 25.215738 4.890092
v -29.526190 28.850887 -3.879602
v -31.971653 19.906519 -1.134108
v -30.154587 21.056894 0.196709
v -25.362898 28.933037 0.089264
v -27.378717 24.640665 -4.527337
v -27.141047 22.293842 -1.935139
v -26.974258 21.795439 0.882221
v -23.571842 25.220493 1.924584
v -27.363783 24.645885 4.247213
v -29.271713 28.134527 4.058556
v -23.067019 25.276508 -1.821418
v -23.383327 22.117804 -0.138131
v -30.069628 30.034847 1.081626
v -17.539768 26.567564 1.126680
v -11.619375 23.975445 0.205594
v -18.600012 27.123777 -0.596865
v -18.048309 24.881884 -0.987869
v -12.459854 21.670055 -0.796507
v -18.090076 24.982906 0.903484
v -12.386330 21.855961 0.850336
v -25.308689 24.608820 0.951262
v -25.106638 23.764933 -0.914608
v -27.370720 16.140959 -0.065717
v -24.121544 16.844719 0.300212
v -26.149643 17.754301 2.636173
v -29.363497 17.910728 -0.051250
v -25.975874 17.503315 -2.920976
v -26.764769 19.554806 -0.119548
v -22.411144 21.039516 -0.101226
v -22.839748 18.990793 1.385334
v -24.641495 20.630177 2.125416
v -25.847898 21.035950 0.463765
v -25.541769 22.643608 -0.360141
v -24.018974 21.752901 -1.907860
v -23.244179 19.038639 -2.092527
v -23.629368 22.485043 0.754839
v -9.796702 20.144371 1.792763
v -8.536165 22.327900 -0.342683
v -12.274237 25.089317 0.527469
v -12.625586 24.528353 -1.676730
v -10.091358 19.633873 -1.450658
v -13.713341 22.574684 -2.190645
v -14.508541 21.226715 -0.531235
v -14.165232 21.777790 1.655439
v -13.082463 23.729065 2.203184
vn -0.9090 0.3693 -0.1935
vn -0.6501 0.6929 -0.3120
vn -0.6426 0.4557 -0.6160
vn -0.5405 -0.8036 -0.2491
vn -0.0693 -0.7777 -0.6248
vn 0.1499 -0.9829 -0.1074
vn -0.4815 -0.8763 -0.0183
vn 0.1375 -0.9904 0.0107
vn 0.0467 -0.8232 0.5658
vn -0.7412 0.6260 0.2423
vn -0.9705 0.2325 0.0643
vn -0.9339 0.1434 0.3276
vn -0.9402 0.3259 0.0992
vn -0.7245 0.5795 0.3731
vn -0.6878 0.7243 0.0484
vn -0.5485 -0.1456 0.8234
vn -0.0076 -0.4573 0.8893
vn -0.0270 0.0532 0.9982
vn -0.4599 -0.0561 0.8862
vn 0.0465 0.1189 0.9918
vn -0.3978 0.4148 0.8184
vn -0.4126 0.9001 -0.1399
vn -0.2248 0.9731 -0.0504
vn -0.0866 0.8763 -0.4739
vn -0.1103 0.5722 -0.8127
vn -0.3917 0.4766 -0.7871
vn -0.5151 0.7345 -0.4417
vn -0.4344 0.5364 -0.7236
vn -0.0788 0.6619 -0.7454
vn 0.1315 0.1713 -0.9764
vn 0.3499 -0.9291 -0.1196
vn 0.5985 -0.7834 0.1676
vn 0.7276 -0.6786 -0.1003
vn 0.7705 -0.5461 0.3287
vn 0.5641 -0.4839 0.6691
vn 0.3285 -0.4765 0.8155
vn -0.0089 0.0984 0.9951
vn -0.0284 0.6364 0.7708
vn -0.3318 0.6611 0.6729
vn 0.0849 0.7217 0.6870
vn -0.2100 0.9091 0.3597
vn -0.4251 0.7882 0.4449
vn -0.5361 0.8370 0.1096
vn -0.4285 0.7566 0.4939
vn -0.1936 0.8696 0.4543
vn 0.5222 0.7794 -0.3463
vn 0.5751 0.4635 -0.6741
vn 0.3488 0.5598 -0.7517
vn 0.2842 0.0841 -0.9551
vn 0.2460 0.5974 -0.7633
vn 0.5291 0.5447 -0.6507
vn 0.1517 -0.7236 -0.6734
vn 0.2929 -0.3689 -0.8821
vn 0.3839 -0.2168 -0.8976
vn 0.3495 -0.2525 0.9023
vn 0.2824 -0.3917 0.8757
vn 0.1483 -0.7614 0.6311
vn 0.5347 0.4968 0.6836
vn 0.2474 0.5367 0.8067
vn 0.2935 0.0146 0.9558
vn 0.3503 0.4723 0.8089
vn 0.5654 0.3919 0.7258
vn 0.5249 0.7371 0.4256
vn 0.9813 0.1030 -0.1625
vn 0.7900 -0.1633 0.5909
vn 0.7718 -0.5258 0.3575
vn 0.1005 0.4908 -0.8655
vn 0.1558 -0.0910 -0.9836
vn 0.0881 -0.0298 -0.9957
vn 0.3519 -0.7020 0.6192
vn 0.1641 -0.8520 0.4971
vn -0.1560 -0.5898 0.7923
vn 0.0757 -0.1115 0.9909
vn 0.1516 -0.1773 0.9724
vn 0.1187 0.4139 0.9026
vn 0.2986 0.9218 0.2471
vn 0.0726 0.9547 0.2885
vn 0.1458 0.7168 0.6818
vn 0.7965 -0.3162 -0.5154
vn 0.6731 -0.6778 -0.2958
vn -0.0363 -0.8482 -0.5284
vn -0.3515 -0.9322 0.0867
vn -0.1822 -0.8646 -0.4683
vn 0.5579 -0.7729 -0.3023
vn -0.0189 -0.9056 0.4236
vn 0.6784 -0.6529 0.3369
vn 0.7321 -0.3018 0.6107
vn 0.7247 0.6468 0.2374
vn 0.8827 0.3414 0.3228
vn 0.9525 0.3039 -0.0170
vn -0.8420 -0.2434 -0.4814
vn -0.4968 -0.1727 -0.8505
vn -0.3033 -0.5230 -0.7965
vn -0.3094 -0.5867 -0.7483
vn -0.6685 -0.5466 -0.5044
vn -0.8439 -0.2226 -0.4881
vn -0.4232 -0.0740 -0.9030
vn 0.1461 -0.2586 -0.9549
vn 0.4303 -0.4867 -0.7602
vn -0.1283 -0.1131 -0.9853
vn 0.4608 -0.2650 -0.8470
vn 0.3747 -0.3913 -0.8406
vn 0.5795 -0.7988 -0.1615
vn 0.4182 -0.4750 -0.7743
vn 0.5040 -0.2464 -0.8278
vn 0.7903 -0.5448 0.2803
vn 0.5102 -0.7382 0.4412
vn 0.4521 -0.6615 0.5984
vn 0.3908 -0.7070 0.5895
vn 0.5073 -0.8471 0.1583
vn 0.6268 -0.7227 0.2912
vn -0.0548 -0.3111 0.9488
vn -0.6367 -0.2054 0.7432
vn -0.3661 -0.6521 0.6638
vn -0.5713 -0.6487 0.5028
vn -0.2289 -0.6114 0.7575
vn -0.5123 -0.3016 0.8041
vn -0.8552 -0.1602 0.4930
vn -0.9992 -0.0223 0.0338
vn -0.7680 -0.5829 0.2655
vn 0.2828 -0.6422 -0.7125
vn 0.4584 -0.7028 -0.5440
vn 0.3746 -0.4426 -0.8147
vn 0.1530 0.8931 -0.4232
vn 0.2067 0.9784 -0.0060
vn 0.2902 0.9566 -0.0252
vn -0.0860 -0.4223 -0.9024
vn -0.2521 -0.7866 -0.5637
vn -0.2535 -0.7948 -0.5514
vn 0.1963 -0.8867 -0.4186
vn 0.0997 -0.5985 -0.7949
vn 0.3422 -0.5531 -0.7596
vn 0.4318 -0.9017 0.0197
vn 0.0444 -0.9819 -0.1840
vn 0.0155 -0.9564 -0.2917
vn 0.2510 -0.4731 0.8445
vn 0.0462 -0.5431 0.8384
vn 0.2553 -0.8053 0.5350
vn 0.2041 0.9660 -0.1586
vn 0.3304 0.8824 0.3349
vn 0.4132 0.8609 0.2969
vn 0.1756 -0.0164 -0.9843
vn 0.1732 0.4846 -0.8574
vn 0.2790 0.4266 -0.8604
vn 0.2764 0.5232 -0.8062
vn 0.0770 0.0765 -0.9941
vn 0.1166 0.1156 -0.9864
vn -0.3191 -0.9007 0.2947
vn -0.3300 -0.9193 -0.2145
vn -0.4903 -0.8430 -0.2214
vn -0.4994 -0.8555 -0.1367
vn -0.4449 -0.8208 0.3582
vn -0.3030 -0.8715 0.3857
vn 0.1013 0.1241 0.9871
vn -0.0928 -0.3505 0.9319
vn -0.1980 -0.3561 0.9132
vn 0.0787 -0.0305 0.9964
vn 0.3221 0.4040 0.8562
vn 0.3392 0.4465 0.8280
vn -0.0921 0.7782 0.6212
vn -0.2591 0.9523 0.1611
vn -0.2997 0.9368 0.1807
vn -0.3617 0.6841 -0.6334
vn -0.3926 0.9043 -0.1677
vn -0.3145 0.9319 -0.1807
vn -0.0658 0.4230 -0.9037
vn 0.0428 -0.0791 -0.9959
vn 0.0174 -0.0918 -0.9956
vn 0.1634 -0.9654 -0.2030
vn 0.1035 -0.9452 0.3097
vn 0.0945 -0.9473 0.3061
vn 0.0143 -0.7720 0.6354
vn 0.1059 -0.9794 0.1719
vn 0.1113 -0.9783 0.1747
vn 0.0173 -0.3900 0.9207
vn 0.0353 0.1254 0.9915
vn -0.0452 0.1095 0.9930
vn -0.0409 -0.9479 0.3161
vn 0.2543 -0.8646 0.4333
vn 0.0552 -0.7080 0.7041
vn -0.2957 -0.8119 0.5033
vn -0.3949 -0.2369 0.8876
vn -0.7428 0.1688 0.6479
vn -0.4792 -0.1240 -0.8689
vn -0.5709 -0.6794 -0.4610
vn -0.8310 -0.2564 -0.4936
vn -0.0115 -0.9674 -0.2530
vn 0.1662 -0.8517 -0.4970
vn 0.3578 -0.9118 -0.2018
vn -0.3716 -0.1410 -0.9176
vn -0.6818 0.2893 -0.6719
vn -0.6519 0.5954 -0.4697
vn 0.4929 -0.2744 0.8257
vn 0.2142 -0.4980 0.8403
vn 0.3658 -0.7890 0.4937
vn 0.8228 -0.4361 -0.3645
vn 0.8615 -0.5021 0.0758
vn 0.7039 -0.7101 0.0142
vn 0.4457 -0.8724 -0.2006
vn 0.2930 -0.7360 -0.6103
vn 0.5455 -0.5589 -0.6246
vn 0.8723 0.2485 0.4211
vn 0.5718 0.3303 0.7510
vn 0.6154 0.0580 0.7861
vn 0.2247 0.1546 0.9621
vn 0.6939 -0.0363 0.7191
vn 0.7409 0.2438 0.6258
vn -0.8177 0.1270 0.5614
vn -0.4555 0.3463 0.8202
vn -0.2427 0.4675 0.8500
vn 0.6337 0.0426 -0.7724
vn 0.6028 0.2567 -0.7555
vn 0.8816 0.2569 -0.3960
vn 0.3948 0.9185 -0.0238
vn -0.0124 0.7038 -0.7103
vn -0.3200 0.8266 -0.4630
vn 0.5379 0.8419 -0.0417
vn 0.7883 0.5398 -0.2953
vn 0.5463 0.6493 -0.5291
vn 0.5586 -0.1393 0.8176
vn 0.0501 0.1275 0.9906
vn 0.0754 0.0363 0.9965
vn -0.4774 -0.1707 0.8619
vn -0.8901 -0.1524 0.4296
vn -0.8432 -0.0613 0.5340
vn -0.8470 0.2801 -0.4519
vn -0.8568 0.1577 -0.4910
vn -0.4702 0.3560 -0.8076
vn -0.0763 0.1576 -0.9845
vn -0.0746 0.3169 -0.9455
vn 0.4135 -0.0296 -0.9100
vn -0.1229 0.8406 0.5275
vn -0.5176 0.8047 0.2909
vn -0.8322 0.2681 0.4854
vn -0.4653 -0.0338 0.8845
vn -0.5696 0.4650 0.6777
vn -0.6562 0.0620 0.7520
vn -0.6533 0.3986 0.6437
vn -0.6132 0.3339 0.7159
vn -0.9079 0.2997 0.2932
vn -0.9069 0.2551 -0.3354
vn -0.5538 0.3358 -0.7620
vn -0.6288 0.3694 -0.6842
vn -0.6185 0.1763 -0.7658
vn -0.7086 0.0855 -0.7004
vn -0.3068 0.2751 -0.9111
vn 0.9445 -0.1243 -0.3042
vn 0.9766 -0.0171 -0.2145
vn 0.9357 -0.3461 0.0681
vn 0.2499 0.3571 0.9000
vn 0.7658 -0.1828 0.6166
vn 0.9405 0.1170 0.3190
vn 0.9396 0.2381 0.2458
vn 0.4206 0.7655 0.4869
vn 0.2728 0.4231 0.8641
vn 0.9083 0.2864 -0.3050
vn 0.3034 0.7830 -0.5429
vn 0.3511 0.9358 -0.0307
vn 0.3178 0.4669 -0.8252
vn 0.8648 -0.0197 -0.5018
vn 0.6424 -0.3881 -0.6609
vn 0.5262 -0.4554 -0.7182
vn -0.0384 0.0020 -0.9993
vn 0.2645 0.4163 -0.8699
vn 0.2236 -0.8547 -0.4685
vn -0.5746 -0.6850 -0.4480
vn -0.4204 -0.3503 -0.8370
vn -0.4845 -0.8715 -0.0756
vn 0.3104 -0.9437 -0.1143
vn 0.3509 -0.8697 0.3472
vn 0.3016 -0.8263 0.4758
vn -0.4683 -0.7201 0.5120
vn -0.4971 -0.8677 0.0037
vn 0.4965 -0.4033 0.7687
vn -0.0994 0.1117 0.9888
vn -0.3979 -0.3147 0.8618
vn 0.4976 -0.5652 0.6580
vn 0.3763 -0.7519 -0.5413
vn 0.9665 0.2239 -0.1257
vn -0.8715 0.4899 -0.0226
vn -0.8754 0.4831 0.0166
vn -0.8683 0.4961 0.0008
vn -0.8583 0.5131 0.0055
vt 0.884066 0.935320
vt 0.222523 0.891990
vt 0.583300 1.000000
vt 0.717260 0.723097
vt 0.034053 0.590379
vt 1.000000 0.590379
vt 0.243320 0.647585
vt 0.501129 0.833300
vt 0.372543 0.564957
vt 0.500000 0.666700
vt 0.521831 0.587350
vt 0.521831 0.710362
vt 0.609391 0.718819
vt 0.632806 0.552150
vt 0.863922 0.618397
vt 0.287976 0.480839
vt 0.583300 0.666700
vt 0.649756 0.500000
vt 0.726703 0.468727
vt 0.137058 0.404204
vt 0.500000 0.666700
vt 0.476707 0.488229
vt 0.513880 0.421292
vt 0.968643 0.271656
vt 0.041189 0.270348
vt 0.288739 0.333575
vt 0.416700 0.311155
vt 0.546046 0.302969
vt 0.765905 0.172497
vt 0.711420 0.333576
vt 0.833300 0.394920
vt 0.583300 0.000000
vt 0.256182 0.134093
vt 0.945267 0.057169
vt 0.500812 0.166700
vt 0.960892 0.419322
vt 0.000000 0.416700
vt 0.000000 1.000000
vt 0.869996 1.000000
vt 0.144139 0.781122
vt 0.040181 0.000000
vt 0.903810 0.000000
vt 0.129331 1.000000
vt 0.103564 0.283507
vt 0.372795 1.000000
vt 0.797724 0.201974
vt 0.403804 0.000000
vt 0.623956 1.000000
vt 0.843790 0.839210
vt 0.619371 0.000000
vt 0.333665 0.838722
vt 0.610258 0.256972
vt 0.145417 0.862745
vt 0.691630 0.931179
vt 0.034846 0.525334
vt 1.000000 0.521121
vt 0.274437 0.558840
vt 0.497063 0.761082
vt 0.525226 0.817395
vt 0.741876 0.567513
vt 0.503091 0.458418
vt 0.044108 0.232329
vt 0.974312 0.229088
vt 0.103525 0.404993
vt 1.000000 0.413563
vt 0.292902 0.340254
vt 0.454625 0.329174
vt 0.517854 0.214764
vt 0.741576 0.239699
vt 0.860638 0.401835
vt 0.583300 0.000000
vt 0.916700 0.000000
vt 0.269435 0.134816
vt 0.693797 0.000000
vt 0.646975 0.892678
vt 0.949980 0.000000
vt 0.054421 0.000000
vt 0.086944 0.429426
vt 0.956177 0.973358
vt 0.000000 0.973358
vt 0.037797 0.641035
vt 0.131878 0.969334
vt 0.142929 0.174071
vt 0.361256 0.000000
vt 0.768260 0.177834
vt 0.291952 0.990442
vt 0.625908 0.033743
vt 0.458234 0.994087
vt 0.966407 0.374653
vt 0.624046 0.989814
vt 0.843594 0.839406
vt 0.789176 0.982872
vt 0.371809 0.965645
s 0
usemtl Material__177
f 1/2/1 3/5/2 4/7/3
f 5/8/4 6/9/5 7/10/6
f 5/8/7 7/10/8 8/14/9
f 9/15/10 1/1/11 2/4/12
f 1/1/13 9/15/14 3/6/15
f 2/4/16 11/18/17 12/19/18
f 2/4/19 12/19/20 9/15/21
f 3/5/22 25/37/23 13/20/24
f 13/20/25 4/7/26 3/5/27
f 4/7/28 13/20/29 10/16/30
f 14/22/31 15/23/32 11/18/33
f 15/23/34 12/19/35 11/18/36
f 12/19/37 22/31/38 9/15/39
f 22/31/40 25/36/41 9/15/42
f 3/6/43 9/15/44 25/36/45
f 16/25/46 23/33/47 13/20/48
f 17/26/49 13/20/50 23/33/51
f 18/27/52 17/26/53 23/33/54
f 20/29/55 21/30/56 19/28/57
f 20/29/58 22/31/59 21/30/60
f 22/31/61 20/29/62 16/24/63
f 23/32/64 20/29/65 24/35/66
f 13/20/67 17/26/68 10/16/69
f 15/23/70 19/28/71 12/19/72
f 12/19/73 21/30/74 22/31/75
f 16/24/76 25/36/77 22/31/78
f 23/33/79 24/35/80 18/27/81
f 19/28/82 18/27/83 24/35/84
f 19/28/85 24/35/86 20/29/87
f 16/24/88 20/29/89 23/34/90
f 1/2/91 4/7/92 6/9/93
f 6/9/94 5/8/95 1/2/96
f 4/7/97 10/16/98 6/9/99
f 10/16/100 14/22/101 6/9/102
f 7/11/103 6/9/104 14/22/105
f 14/21/106 11/17/107 8/13/108
f 8/13/109 7/12/110 14/21/111
f 11/18/112 2/4/113 8/14/114
f 5/8/115 8/14/116 2/4/117
f 2/4/118 1/3/119 5/8/120
f 15/23/121 14/22/122 10/16/123
f 13/20/124 25/37/125 16/25/126
f 17/26/127 18/27/128 15/23/129
f 15/23/130 10/16/131 17/26/132
f 19/28/133 15/23/134 18/27/135
f 21/30/136 12/19/137 19/28/138
f 28/43/139 26/38/140 27/41/141
f 29/45/142 28/43/143 27/41/144
f 27/41/145 30/47/146 29/45/147
f 31/48/148 29/45/149 30/47/150
f 30/47/151 32/50/152 31/48/153
f 26/39/154 31/48/155 32/50/156
f 32/50/157 27/42/158 26/39/159
f 26/40/160 28/44/161 33/51/162
f 34/52/163 33/51/164 28/44/165
f 28/44/166 29/46/167 34/52/168
f 29/46/169 31/49/170 34/52/171
f 33/51/172 34/52/173 31/49/174
f 31/49/175 26/40/176 33/51/177
f 35/53/178 36/55/179 37/57/180
f 35/53/181 37/57/182 38/59/183
f 39/60/184 35/54/185 38/58/186
f 35/54/187 39/60/188 36/56/189
f 39/60/190 38/58/191 40/61/192
f 42/64/193 37/57/194 36/55/195
f 47/70/196 42/65/197 36/56/198
f 36/56/199 39/60/200 47/70/201
f 41/62/202 48/73/203 42/64/204
f 43/66/205 42/64/206 48/73/207
f 44/67/208 43/66/209 48/73/210
f 47/70/211 46/69/212 41/63/213
f 48/71/214 46/69/215 45/68/216
f 48/72/217 41/63/218 46/69/219
f 42/64/220 43/66/221 37/57/222
f 43/66/223 44/67/224 40/61/225
f 40/61/226 44/67/227 46/69/228
f 39/60/229 46/69/230 47/70/231
f 48/73/232 45/68/233 44/67/234
f 37/57/235 40/61/236 38/59/237
f 37/57/238 43/66/239 40/61/240
f 40/61/241 46/69/242 39/60/243
f 44/67/244 45/68/245 46/69/246
f 47/70/247 41/63/248 42/65/249
usemtl Material__189
f 57/92/250 49/74/251 50/76/252
f 50/76/253 51/79/254 57/92/255
f 50/77/256 52/82/257 51/80/258
f 52/82/259 50/77/260 53/84/261
f 53/84/262 54/86/263 52/82/264
f 53/84/265 55/88/266 54/86/267
f 55/88/268 53/84/269 49/74/270
f 49/74/271 56/90/272 55/88/273
f 49/74/274 57/92/275 56/90/276
f 49/75/277 53/85/278 50/78/279
f 56/91/280 57/93/280 51/81/280
f 51/81/281 52/83/281 54/87/281
f 56/91/282 51/81/282 54/87/282
f 55/89/283 56/91/283 54/87/283
