# Blender 3.4.0
# www.blender.org
mtllib PataI.mtl
o PataI
v 6.617377 3.790719 2.775496
v 3.915146 3.790429 1.904403
v 5.649354 6.231850 1.983516
v 4.143423 6.233113 0.623334
v 3.319003 3.790393 -0.872332
v 4.569331 6.231843 -1.361214
v 5.426180 3.790593 -2.775957
v 6.500372 6.233174 -1.982446
v 8.127196 3.790949 -1.902993
v 8.003547 6.231890 -0.622667
v 8.722314 3.791044 0.871765
v 7.578410 6.233184 1.358843
v 3.591490 3.101777 0.769119
v 5.478780 3.084672 2.499736
v 7.333611 3.157770 2.081099
v 8.513693 3.112194 0.568651
v 7.775145 3.131523 -1.848287
v 5.985917 3.030501 -2.509199
v 4.152574 3.074903 -1.754435
v 6.114120 -0.040154 -0.270521
v 5.592360 0.295200 -0.157537
v 6.159730 -0.106773 0.288674
v 5.099769 3.567299 -0.920834
v 6.644720 3.556923 -1.206812
v 7.227887 3.558995 0.624356
v 4.890591 3.521728 0.883966
vn -0.2375 0.7089 0.6642
vn -0.5904 -0.0138 0.8070
vn -0.0494 -0.0863 0.9950
vn -0.5594 0.0693 0.8260
vn -0.1638 0.7859 0.5963
vn -0.4480 0.8404 0.3051
vn -0.6904 0.7130 0.1225
vn -0.9940 -0.0097 -0.1088
vn -0.8869 -0.0782 0.4554
vn -0.9947 0.0740 -0.0713
vn -0.5942 0.7894 0.1540
vn -0.4862 0.8405 -0.2390
vn -0.4522 0.7093 -0.5408
vn -0.4029 -0.0146 -0.9151
vn -0.8384 -0.0795 -0.5393
vn -0.4386 0.0693 -0.8960
vn -0.4330 0.7867 -0.4400
vn -0.0353 0.8368 -0.5464
vn 0.2438 0.7014 -0.6698
vn 0.5899 -0.0240 -0.8071
vn 0.0471 -0.0887 -0.9949
vn 0.5548 0.0598 -0.8299
vn 0.1664 0.7810 -0.6020
vn 0.4603 0.8325 -0.3082
vn 0.7055 0.6971 -0.1277
vn 0.9939 -0.0284 0.1062
vn 0.8847 -0.0971 -0.4560
vn 0.9963 0.0549 0.0658
vn 0.6087 0.7772 -0.1591
vn 0.4991 0.8324 0.2409
vn 0.4623 0.7010 0.5430
vn 0.4049 -0.0232 0.9141
vn 0.8366 -0.0958 0.5394
vn 0.4383 0.0598 0.8969
vn 0.4395 0.7801 0.4453
vn 0.0417 0.8362 0.5469
vn -0.1334 0.7641 0.6312
vn 0.4842 0.7588 0.4356
vn 0.6203 0.7584 -0.2000
vn -0.4723 0.7696 -0.4297
vn -0.6068 0.7700 0.1972
vn -0.1321 0.7640 0.6315
vn -0.4732 0.7692 -0.4294
vn -0.1330 0.7636 0.6318
vn 0.6211 0.7580 -0.1992
vn 0.1380 0.7645 -0.6297
vn -0.4731 0.7696 -0.4287
vn 0.6210 0.7584 -0.1980
vn 0.0298 -0.9987 -0.0424
vn -0.0351 -0.9994 0.0027
vn 0.0121 -0.9999 0.0080
vn 0.0182 -0.9945 0.1027
vn 0.0160 -0.9998 0.0142
vn -0.0271 0.3691 0.9290
vn -0.6209 0.2041 0.7568
vn 0.0369 -0.6625 0.7481
vn -0.0190 -0.9961 -0.0859
vn 0.2988 -0.9106 0.2856
vn -0.6109 -0.3435 0.7133
vn -0.8181 0.3663 0.4433
vn -0.9666 0.1994 -0.1607
vn -0.6387 -0.6641 0.3885
vn 0.0637 -0.9964 -0.0568
vn -0.1188 -0.9092 0.3991
vn -0.9275 -0.3362 -0.1636
vn -0.7880 0.3846 -0.4808
vn -0.3450 0.2182 -0.9129
vn -0.6522 -0.6672 -0.3597
vn -0.0656 -0.9959 -0.0627
vn -0.4547 -0.8906 0.0039
vn -0.3510 -0.1712 -0.9206
vn 0.3825 -0.8305 -0.4050
vn 0.2973 -0.8333 -0.4661
vn -0.0006 0.0441 -0.9990
vn 0.0179 -0.0014 -0.9998
vn 0.5788 -0.0229 -0.8152
vn 0.2241 -0.9244 -0.3087
vn 0.1381 -0.9839 0.1138
vn 0.0652 -0.9861 -0.1531
vn 0.8129 -0.2287 -0.5356
vn 0.8755 0.0243 -0.4827
vn 0.9954 0.0023 0.0958
vn 0.3814 -0.9244 0.0100
vn 0.0219 -0.9791 0.2020
vn 0.1828 -0.9822 -0.0438
vn 0.8964 -0.2009 0.3950
vn 0.8415 0.1740 0.5114
vn 0.3707 0.0597 0.9268
vn 0.4588 -0.8348 0.3043
vn -0.0326 -0.9994 -0.0132
vn 0.3780 -0.9212 -0.0920
vn 0.3198 -0.2958 0.9001
vn -0.3134 -0.9143 0.2565
vn -0.8133 -0.5583 -0.1635
vn -0.0165 -0.7890 -0.6141
vn 0.0061 1.0000 -0.0031
vn -0.0133 0.9996 0.0237
vn 0.7416 -0.2381 -0.6271
vn 0.9574 -0.2766 0.0828
vn 0.9480 -0.3081 0.0799
vn 0.9319 -0.2418 0.2703
vn 0.8593 -0.2322 -0.4557
vn 0.8605 -0.2262 -0.4565
vn -0.5329 -0.1977 -0.8228
vn 0.1985 -0.2639 -0.9439
vn 0.1920 -0.3041 -0.9331
vn -0.0192 -0.4264 -0.9044
vn -0.6844 -0.2146 -0.6968
vn -0.6822 -0.2441 -0.6893
vn -0.9485 -0.1793 0.2610
vn -0.8526 -0.2210 -0.4735
vn -0.8471 -0.2560 -0.4657
vn -0.8945 -0.3621 0.2620
vn -0.4120 -0.4029 0.8173
vn -0.4434 -0.2809 0.8511
vn 0.4741 -0.1120 0.8733
vn -0.2551 -0.2126 0.9432
vn -0.2436 -0.2501 0.9371
vt 0.716612 0.800000
vt 0.883286 0.800000
vt 0.783182 0.000000
vt 0.400415 0.973311
vt 0.949991 0.000000
vt 0.000000 0.000000
vt 0.040223 0.650087
vt 1.000000 0.800000
vt 0.049996 0.800000
vt 0.116775 0.000000
vt 0.140452 0.176548
vt 0.216750 0.800000
vt 0.283467 0.000000
vt 0.600442 0.026918
vt 0.383391 0.800000
vt 0.450056 0.000000
vt 0.959829 0.350108
vt 0.549964 0.800000
vt 0.616561 0.000000
vt 0.860018 0.822982
vt 0.037798 0.641037
vt 0.954566 1.000000
vt 0.000000 1.000000
vt 0.390633 0.970690
vt 0.778704 1.000000
vt 0.750000 0.933000
vt 0.666700 1.000000
vt 0.968615 0.617108
vt 0.539020 1.000000
vt 0.839368 0.156368
vt 0.374028 1.000000
vt 0.500000 0.000000
vt 0.250000 1.000000
vt 0.146407 0.170593
vt 0.134103 1.000000
vt 0.888947 0.107111
vt 0.245576 0.107111
vt 0.249243 0.258610
vt 0.582175 0.258612
vt 0.146400 0.146400
vt 0.125000 1.000000
vt 0.090059 0.717520
vt 0.923105 1.000000
vt 0.000000 1.000000
vt 0.717538 0.909934
vt 0.673099 1.000000
vt 0.729380 0.170082
vt 0.349866 1.000000
s 0
usemtl Material__249
f 3/3/1 2/2/2 1/1/3
f 2/2/4 3/3/5 4/5/6
f 4/5/7 5/8/8 2/2/9
f 5/9/10 4/6/11 6/10/12
f 6/10/13 7/12/14 5/9/15
f 7/12/16 6/10/17 8/13/18
f 8/13/19 9/15/20 7/12/21
f 9/15/22 8/13/23 10/16/24
f 10/16/25 11/18/26 9/15/27
f 11/18/28 10/16/29 12/19/30
f 12/19/31 1/1/32 11/18/33
f 1/1/34 12/19/35 3/3/36
f 3/4/37 12/20/38 10/17/39
f 6/11/40 4/7/41 3/4/42
f 6/11/43 3/4/44 10/17/45
f 8/14/46 6/11/47 10/17/48
f 15/26/49 14/24/49 13/21/49
f 17/30/50 16/28/50 15/26/50
f 17/30/51 15/26/51 13/21/51
f 19/34/52 18/32/52 17/30/52
f 19/34/53 17/30/53 13/21/53
f 1/1/54 2/2/55 14/25/56
f 13/22/57 14/25/58 2/2/59
f 2/2/60 5/8/61 13/22/62
f 19/35/63 13/23/64 5/9/65
f 5/9/66 7/12/67 19/35/68
f 18/33/69 19/35/70 7/12/71
f 17/31/72 18/33/73 7/12/74
f 7/12/75 9/15/76 17/31/77
f 16/29/78 17/31/79 9/15/80
f 9/15/81 11/18/82 16/29/83
f 15/27/84 16/29/85 11/18/86
f 11/18/87 1/1/88 15/27/89
f 14/25/90 15/27/91 1/1/92
usemtl Material__177
f 22/39/93 21/38/94 20/37/95
f 25/45/96 24/42/96 23/40/96
f 26/47/97 25/45/97 23/40/97
f 24/43/98 25/46/99 22/39/100
f 22/39/101 20/36/102 24/43/103
f 23/41/104 24/44/105 20/37/106
f 20/37/107 21/38/108 23/41/109
f 26/48/110 23/41/111 21/38/112
f 21/38/113 22/39/114 26/48/115
f 25/46/116 26/48/117 22/39/118
